<?xml version="1.0" encoding="UTF-8" standalone="no"?>
<!DOCTYPE svg PUBLIC "-//W3C//DTD SVG 1.1//EN" "http://www.w3.org/Graphics/SVG/1.1/DTD/svg11.dtd">
<svg width="100%" height="100%" viewBox="0 0 683 659" version="1.1" xmlns="http://www.w3.org/2000/svg" xmlns:xlink="http://www.w3.org/1999/xlink" xml:space="preserve" xmlns:serif="http://www.serif.com/" style="fill-rule:evenodd;clip-rule:evenodd;stroke-linejoin:round;stroke-miterlimit:2;">
    <g transform="matrix(1,0,0,1,-672.5,-694.746702)">
        <g>
            <g transform="matrix(0.563067,0,0,0.563067,515.685903,548.630874)">
                <path d="M746,885.684C746,897.039 741.489,907.93 733.459,915.959C725.43,923.989 714.539,928.5 703.184,928.5L613,928.5C428.384,928.5 278.5,778.616 278.5,594C278.5,409.384 428.384,259.5 613,259.5L703.184,259.5C714.539,259.5 725.43,264.011 733.459,272.041C741.489,280.07 746,290.961 746,302.316L746,341.684C746,353.039 741.489,363.93 733.459,371.959C725.43,379.989 714.539,384.5 703.184,384.5L613,384.5C497.374,384.5 403.5,478.374 403.5,594C403.5,709.626 497.374,803.5 613,803.5L703.184,803.5C714.539,803.5 725.43,808.011 733.459,816.041C741.489,824.07 746,834.961 746,846.316L746,885.684Z" style="fill:rgb(237,237,237);"/>
            </g>
            <g transform="matrix(0.563067,0,0,0.563067,515.685903,548.630874)">
                <path d="M822.5,302.316C822.5,290.961 827.011,280.07 835.041,272.041C843.07,264.011 853.961,259.5 865.316,259.5L1157,259.5C1341.616,259.5 1491.5,409.384 1491.5,594C1491.5,730.435 1409.64,847.901 1292.399,899.921C1284.258,903.566 1278.083,910.544 1275.455,919.068C1272.827,927.592 1274.001,936.835 1278.676,944.432C1299.841,978.864 1333.554,1033.648 1355.789,1069.779C1368.182,1089.918 1361.903,1116.291 1341.764,1128.684L1308.236,1149.316C1298.565,1155.268 1286.926,1157.134 1275.879,1154.503C1264.832,1151.873 1255.283,1144.962 1249.332,1135.291L1131.154,943.253C1125.512,934.085 1115.518,928.5 1104.753,928.5L978.5,928.5C961.379,928.5 947.5,942.379 947.5,959.5L947.5,1386.184C947.5,1397.539 942.989,1408.43 934.959,1416.459C926.93,1424.489 916.039,1429 904.684,1429L865.316,1429C853.961,1429 843.07,1424.489 835.041,1416.459C827.011,1408.43 822.5,1397.539 822.5,1386.184L822.5,905.983C822.5,849.383 868.383,803.5 924.983,803.5L1157,803.5C1272.626,803.5 1366.5,709.626 1366.5,594C1366.5,478.374 1272.626,384.5 1157,384.5L865.316,384.5C853.961,384.5 843.07,379.989 835.041,371.959C827.011,363.93 822.5,353.039 822.5,341.684L822.5,302.316Z" style="fill:rgb(237,237,237);"/>
            </g>
            <g transform="matrix(0,-0.563067,0.563067,0,543.839242,1245.707543)">
                <circle cx="644" cy="594" r="88" style="fill:rgb(237,237,237);"/>
            </g>
            <g transform="matrix(0,-0.563067,0.563067,0,815.237428,1245.707543)">
                <circle cx="644" cy="594" r="88" style="fill:rgb(237,237,237);"/>
            </g>
        </g>
    </g>
</svg>
